<svg xmlns="http://www.w3.org/2000/svg" xmlns:xlink="http://www.w3.org/1999/xlink" viewBox="0,0,256,256" width="30px" height="30px" fill-rule="nonzero"><g fill="none" fill-rule="nonzero" stroke="none" stroke-width="1" stroke-linecap="butt" stroke-linejoin="miter" stroke-miterlimit="10" stroke-dasharray="" stroke-dashoffset="0" font-family="none" font-weight="none" font-size="none" text-anchor="none" style="mix-blend-mode: normal"><g transform="scale(8.53333,8.53333)"><path d="M27.123,24.5c-0.76,0 -1.484,-0.396 -1.939,-1.06l-3.938,-5.746l-3.938,5.745c-0.455,0.664 -1.18,1.061 -1.94,1.061h-1.825l6.184,-9.023l-6.154,-8.977h1.826c0.761,0 1.486,0.396 1.94,1.06l3.907,5.7l3.907,-5.7c0.454,-0.664 1.18,-1.06 1.94,-1.06h1.825l-6.153,8.977l6.185,9.023z" fill="#4aa9f3"></path><path d="M27.969,7l-5.81,8.477l5.841,8.523h-0.877c-0.599,0 -1.164,-0.311 -1.527,-0.842l-4.351,-6.348l-4.351,6.348c-0.363,0.531 -0.928,0.842 -1.527,0.842h-0.877l5.841,-8.523l-5.809,-8.477h0.877c0.599,0 1.164,0.311 1.527,0.842l4.32,6.303l4.32,-6.303c0.363,-0.531 0.927,-0.842 1.526,-0.842h0.877M29.867,6h-1.898h-0.877c-0.925,0 -1.804,0.477 -2.352,1.277l-3.495,5.099l-3.495,-5.099c-0.547,-0.8 -1.427,-1.277 -2.352,-1.277h-0.877h-1.898l1.073,1.565l5.423,7.912l-5.454,7.957l-1.072,1.566h1.898h0.877c0.925,0 1.804,-0.477 2.352,-1.277l3.526,-5.144l3.526,5.144c0.547,0.8 1.426,1.277 2.351,1.277h0.877h1.898l-1.073,-1.565l-5.454,-7.957l5.423,-7.912l1.073,-1.566z" fill="#66798f"></path><g><path d="M7.53,24.487c-3.876,0 -7.03,-3.26 -7.03,-7.268v-3.412c0,-4.008 3.153,-7.268 7.03,-7.268c3.877,0 7.03,3.26 7.03,7.268v3.124l-11.609,0.001v0.287c0,2.656 2.054,4.816 4.579,4.816c1.391,0 2.74,-0.701 3.609,-1.876c0.482,-0.652 1.191,-1.026 1.947,-1.026h1.263l-0.248,0.673c-1.032,2.8 -3.672,4.681 -6.571,4.681zM12.085,14.521l0.024,-0.73c0,-2.64 -2.055,-4.8 -4.58,-4.8c-2.524,0 -4.579,2.16 -4.579,4.816l-0.023,0.714z" fill="#4aa9f3"></path><path d="M7.53,7.039c3.6,0 6.53,3.036 6.53,6.767v2.625h-11.609v0.787c0,2.932 2.278,5.317 5.079,5.317c1.587,0 3.064,-0.799 4.01,-2.079c0.369,-0.498 0.925,-0.823 1.545,-0.823h0.546c0,0 0,0 0,0.001c-0.959,2.603 -3.413,4.353 -6.102,4.353c-3.6,0 -6.53,-3.036 -6.53,-6.768v-3.412c0.001,-3.732 2.93,-6.768 6.531,-6.768M2.411,15.021h10.158l0.04,-1.214c0,-2.931 -2.278,-5.316 -5.079,-5.316c-2.801,0 -5.079,2.385 -5.079,5.316l-0.04,1.214M7.53,6.039c-4.152,0 -7.53,3.485 -7.53,7.768v3.412c0,4.283 3.378,7.768 7.53,7.768c3.107,0 5.936,-2.012 7.04,-5.007l0.495,-1.344l-1.433,-0.002l-0.546,-0.001c-0.917,0 -1.773,0.448 -2.35,1.229c-0.775,1.048 -1.973,1.674 -3.206,1.674c-2.182,0 -3.969,-1.822 -4.074,-4.104h10.604h1v-1v-2.625c0,-4.283 -3.378,-7.768 -7.53,-7.768zM3.445,14.021l0.006,-0.181c0,-2.413 1.83,-4.35 4.079,-4.35c2.249,0 4.079,1.936 4.079,4.316l-0.007,0.214h-8.157z" fill="#66798f"></path></g></g></g></svg>