<svg xmlns="http://www.w3.org/2000/svg" version="1.0" width="400.000000pt" height="400.000000pt" viewBox="-3 -3 406 406" preserveAspectRatio="xMidYMid meet"><g id="deeditor_bgCarrier" stroke-width="0">
  <rect id="dee_c_e" x="-3" y="-3" width="406" height="406" rx="38.4" fill="#faffff" strokewidth="0"/>
</g>

<g transform="translate(0.000000,400.000000) scale(0.100000,-0.100000)" fill="#000000" stroke="none">
<path d="M2411 3029 c-117 -23 -262 -122 -326 -224 -43 -68 -59 -113 -89 -243 -34 -153 -87 -252 -186 -351 -41 -42 -104 -93 -140 -114 -191 -111 -433 -125 -628 -36 -36 16 -69 26 -74 21 -4 -4 -7 -258 -6 -563 l3 -554 517 -3 517 -2 3 427 c3 417 4 429 25 468 25 47 74 96 123 121 30 16 68 20 255 25 190 5 228 9 279 28 159 57 267 164 323 319 88 243 -27 525 -259 636 -114 53 -221 68 -337 45z" fill="#000000"/>
</g>
</svg>